<svg id="visual" viewBox="0 0 900 600" width="900" height="600" xmlns="http://www.w3.org/2000/svg" xmlns:xlink="http://www.w3.org/1999/xlink" version="1.1"><rect x="0" y="0" width="900" height="600" fill="#494d7e"></rect><path d="M0 381L16.7 360.5C33.3 340 66.7 299 100 281.3C133.3 263.7 166.7 269.3 200 276.7C233.3 284 266.7 293 300 305C333.3 317 366.7 332 400 322.3C433.3 312.7 466.7 278.3 500 263.5C533.3 248.7 566.7 253.3 600 270.3C633.3 287.3 666.7 316.7 700 331.5C733.3 346.3 766.7 346.7 800 338C833.3 329.3 866.7 311.7 883.3 302.8L900 294L900 601L883.3 601C866.7 601 833.3 601 800 601C766.7 601 733.3 601 700 601C666.7 601 633.3 601 600 601C566.7 601 533.3 601 500 601C466.7 601 433.3 601 400 601C366.7 601 333.3 601 300 601C266.7 601 233.3 601 200 601C166.7 601 133.3 601 100 601C66.7 601 33.3 601 16.7 601L0 601Z" fill="#272744" stroke-linecap="round" stroke-linejoin="miter"></path></svg>